<?xml version="1.0" encoding="utf-8"?>
<!-- Svg Vector Icons : http://www.onlinewebfonts.com/icon -->
<!DOCTYPE svg PUBLIC "-//W3C//DTD SVG 1.1//EN" "http://www.w3.org/Graphics/SVG/1.1/DTD/svg11.dtd">
<svg version="1.1" xmlns="http://www.w3.org/2000/svg" xmlns:xlink="http://www.w3.org/1999/xlink" x="0px" y="0px" viewBox="0 0 256 256" enable-background="new 0 0 256 256" xml:space="preserve">
<metadata> Svg Vector Icons : http://www.onlinewebfonts.com/icon </metadata>
<g><g><path fill="#000000" d="M145.3,170.5L93.1,78.5L26.9,195.4h100.7h31.9h71.9l-51.9-73L145.3,170.5z M234.7,43.7H21.2C15,43.7,10,48.7,10,55V201c0,6.2,5,11.2,11.2,11.2h213.5c6.2,0,11.2-5,11.2-11.2V55C246,48.7,240.9,43.7,234.7,43.7z M240.4,201c0,3.1-2.5,5.6-5.6,5.6H21.2c-3.1,0-5.6-2.5-5.6-5.6V55c0-3.1,2.5-5.6,5.6-5.6h213.5c3.1,0,5.6,2.5,5.6,5.6V201L240.4,201z M196.5,99.9c9.3,0,16.9-7.5,16.9-16.9s-7.5-16.9-16.9-16.9s-16.9,7.5-16.9,16.9S187.2,99.9,196.5,99.9z"/></g></g>
</svg>