<?xml version="1.0" encoding="UTF-8"?>
<svg version="1.1" xmlns="http://www.w3.org/2000/svg" width="316" height="112">
<path d="M0 0 C4.22741199 1.82547336 5.99333037 3.90774676 8 8 C9.10995312 16.09340815 8.77609577 23.82490266 4.546875 30.9765625 C0.74791774 35.94590559 -3.84904746 38.51090436 -9.93359375 39.796875 C-13.41831042 40.13941804 -16.56127493 39.61405805 -20 39 C-20.04898438 39.67546875 -20.09796875 40.3509375 -20.1484375 41.046875 C-20.22320312 41.93890625 -20.29796875 42.8309375 -20.375 43.75 C-20.44460937 44.63171875 -20.51421875 45.5134375 -20.5859375 46.421875 C-20.99850055 48.99066382 -21.71160957 50.75841015 -23 53 C-24.47906892 53.02689216 -25.95827483 53.04634621 -27.4375 53.0625 C-28.26121094 53.07410156 -29.08492188 53.08570313 -29.93359375 53.09765625 C-32 53 -32 53 -33 52 C-33.23134933 46.2134453 -32.67854646 40.78633018 -31.7578125 35.08203125 C-31.62937958 34.26175949 -31.50094666 33.44148773 -31.36862183 32.59635925 C-31.0975623 30.87569156 -30.82344163 29.15550353 -30.54638672 27.43579102 C-30.12471954 24.81075401 -29.71603397 22.18391914 -29.30859375 19.55664062 C-29.0424399 17.87748142 -28.77553859 16.19844049 -28.5078125 14.51953125 C-28.3868924 13.7392305 -28.26597229 12.95892975 -28.14138794 12.15498352 C-27.4942313 8.19248679 -26.6935708 4.67883749 -25 1 C-23.72125 0.938125 -22.4425 0.87625 -21.125 0.8125 C-20.04605469 0.76029297 -20.04605469 0.76029297 -18.9453125 0.70703125 C-18.30335937 0.80371094 -17.66140625 0.90039062 -17 1 C-16.34 1.99 -15.68 2.98 -15 4 C-14.25556641 3.566875 -14.25556641 3.566875 -13.49609375 3.125 C-8.83396047 0.57719282 -5.43770096 -0.71818692 0 0 Z M-8 10 C-13.35752556 14.09913002 -16.96319204 17.0015463 -18 24 C-18.16928543 26.79244045 -18.16928543 26.79244045 -18 29 C-13.64583765 30.0125959 -10.91376936 30.32710611 -7 28 C-3.20302117 23.94116056 -3.74912169 19.47213725 -3.89453125 14.23046875 C-3.92933594 13.49441406 -3.96414062 12.75835937 -4 12 C-5.32 11.34 -6.64 10.68 -8 10 Z " fill="#FEFEFE" transform="translate(105,21)"/>
<path d="M0 0 C0.66 0.33 1.32 0.66 2 1 C2.15366997 7.39651259 1.64846374 13.27698902 0.5 19.5625 C0.28537109 20.78936523 0.28537109 20.78936523 0.06640625 22.04101562 C-0.28228312 24.02854504 -0.64016085 26.01445896 -1 28 C3.38290023 25.81228319 5.11595263 23.65451224 7.3125 19.3125 C7.82425781 18.31863281 8.33601563 17.32476563 8.86328125 16.30078125 C9.23839844 15.54152344 9.61351562 14.78226563 10 14 C13.3 14 16.6 14 20 14 C20.94915453 17.08475224 21.20563498 18.53008062 19.890625 21.53515625 C19.07851562 22.78619141 19.07851562 22.78619141 18.25 24.0625 C17.71890625 24.89910156 17.1878125 25.73570313 16.640625 26.59765625 C15.57520462 28.1577361 14.45941703 29.68498527 13.2890625 31.16796875 C11.76316374 32.93438757 11.76316374 32.93438757 12.125 35.25 C12.85708292 37.55083205 13.68055807 39.75505689 14.5625 42 C15.78292581 45.12808169 16.31852568 47.60239272 16 51 C12.77366426 52.61316787 9.47647578 52.73116356 6 52 C2.46273429 47.9973046 0 43.39458744 0 38 C-0.99 38 -1.98 38 -3 38 C-3.12117188 38.92683594 -3.24234375 39.85367188 -3.3671875 40.80859375 C-3.61855469 42.60490234 -3.61855469 42.60490234 -3.875 44.4375 C-4.03742188 45.63246094 -4.19984375 46.82742187 -4.3671875 48.05859375 C-4.68042969 49.51458984 -4.68042969 49.51458984 -5 51 C-8.21451269 52.60725635 -11.43612536 52.05748185 -15 52 C-16.84680046 48.89703541 -17.18466623 47.10242652 -16.6003418 43.55444336 C-16.46327316 42.68351547 -16.32620453 41.81258759 -16.1849823 40.91526794 C-15.94452934 39.51668297 -15.94452934 39.51668297 -15.69921875 38.08984375 C-15.54338821 37.12599258 -15.38755768 36.16214142 -15.227005 35.16908264 C-14.72582819 32.08978381 -14.20658627 29.0138248 -13.6875 25.9375 C-13.34848708 23.86151109 -13.01058323 21.78534073 -12.67382812 19.70898438 C-12.05155172 15.91029995 -11.42873269 12.11175412 -10.7878418 8.31616211 C-10.65967575 7.55323349 -10.5315097 6.79030487 -10.39945984 6.0042572 C-10 4 -10 4 -9 1 C-6.01405576 -0.49297212 -3.29146376 -0.11755228 0 0 Z " fill="#FEFEFE" transform="translate(131,8)"/>
<path d="M0 0 C1.22448659 3.67345977 0.66884046 6.4974684 0.07421875 10.22265625 C-0.03343307 10.9239415 -0.1410849 11.62522675 -0.2519989 12.34776306 C-0.48140908 13.82850896 -0.71447505 15.30869243 -0.95092773 16.78833008 C-1.31144038 19.05583531 -1.6554523 21.32542993 -1.99804688 23.59570312 C-2.22296653 25.03400961 -2.4488456 26.47216647 -2.67578125 27.91015625 C-2.77796463 28.59038345 -2.88014801 29.27061066 -2.98542786 29.97145081 C-3.77034983 34.77034983 -3.77034983 34.77034983 -6 37 C-11.33333333 37.33333333 -11.33333333 37.33333333 -14 36 C-14.33 35.01 -14.66 34.02 -15 33 C-15.845625 33.639375 -16.69125 34.27875 -17.5625 34.9375 C-21.00651974 37.20117494 -23.82477417 37.92675042 -28 38 C-31.56113336 37.09462711 -33.96461697 36.27291207 -36.328125 33.3671875 C-39.70493473 27.493441 -40.06445307 21.31907576 -38.45703125 14.796875 C-36.46648345 9.03418414 -33.86642936 3.8867175 -28.5 0.6875 C-19.60732333 -3.60004054 -9.28314923 -2.89147271 0 0 Z M-25 12 C-27.24699162 15.95898523 -27.33307341 19.503509 -27 24 C-26.34 24.99 -25.68 25.98 -25 27 C-21.24345361 26.88951334 -19.32804939 25.6954829 -16.8125 23.0625 C-13.44291439 18.88525599 -12.33545222 14.30624425 -12 9 C-13.15016254 7.63777693 -13.15016254 7.63777693 -16.25 7.6875 C-20.61805481 8.05150457 -22.02143308 8.85122925 -25 12 Z " fill="#FEFEFE" transform="translate(190,23)"/>
<path d="M0 0 C2.06091892 -0.00218884 4.12130456 -0.0203571 6.18212891 -0.03930664 C7.47505859 -0.04124023 8.76798828 -0.04317383 10.10009766 -0.04516602 C11.29183594 -0.0492749 12.48357422 -0.05338379 13.71142578 -0.05761719 C16.56884766 0.18530273 16.56884766 0.18530273 18.56884766 2.18530273 C18.61572266 4.09545898 18.61572266 4.09545898 18.31884766 6.24780273 C18.23119141 6.9606543 18.14353516 7.67350586 18.05322266 8.40795898 C17.81345703 9.28774414 17.81345703 9.28774414 17.56884766 10.18530273 C15.22032238 11.35956537 13.831107 11.30038446 11.21728516 11.28295898 C10.36650391 11.27973633 9.51572266 11.27651367 8.63916016 11.27319336 C7.74970703 11.26481445 6.86025391 11.25643555 5.94384766 11.24780273 C4.59806641 11.24103516 4.59806641 11.24103516 3.22509766 11.23413086 C1.00631935 11.22232885 -1.21242477 11.20439312 -3.43115234 11.18530273 C-3.76115234 14.48530273 -4.09115234 17.78530273 -4.43115234 21.18530273 C-2.82433594 21.27618164 -2.82433594 21.27618164 -1.18505859 21.36889648 C0.21209157 21.45328811 1.60922622 21.53793679 3.00634766 21.62280273 C3.71339844 21.66211914 4.42044922 21.70143555 5.14892578 21.74194336 C10.45556641 22.07202148 10.45556641 22.07202148 11.56884766 23.18530273 C11.75634766 26.62280273 11.75634766 26.62280273 11.56884766 30.18530273 C9.56884766 32.18530273 9.56884766 32.18530273 5.87353516 32.38061523 C4.39684658 32.36731173 2.92022407 32.34345108 1.44384766 32.31030273 C0.68974609 32.3012793 -0.06435547 32.29225586 -0.84130859 32.28295898 C-2.70472489 32.25937144 -4.56797827 32.22349992 -6.43115234 32.18530273 C-6.51155762 32.75563232 -6.59196289 33.32596191 -6.67480469 33.91357422 C-7.04260291 36.48475139 -7.42418339 39.05369424 -7.80615234 41.62280273 C-7.93248047 42.52063477 -8.05880859 43.4184668 -8.18896484 44.34350586 C-8.31787109 45.19750977 -8.44677734 46.05151367 -8.57958984 46.93139648 C-8.6947998 47.72215576 -8.81000977 48.51291504 -8.92871094 49.32763672 C-9.0945166 49.9406665 -9.26032227 50.55369629 -9.43115234 51.18530273 C-11.67627497 52.30786405 -12.94571883 52.31944036 -15.43115234 52.31030273 C-16.48302734 52.31416992 -16.48302734 52.31416992 -17.55615234 52.31811523 C-19.43115234 52.18530273 -19.43115234 52.18530273 -21.43115234 51.18530273 C-20.93724524 40.91558529 -19.61265126 30.92972956 -17.90209961 20.80322266 C-17.48691645 18.33272153 -17.08853432 15.85985717 -16.69091797 13.38647461 C-16.42954299 11.81274135 -16.16721055 10.23916675 -15.90380859 8.66577148 C-15.72713402 7.55820747 -15.72713402 7.55820747 -15.54689026 6.42826843 C-15.24258592 4.66758201 -14.84552407 2.92338038 -14.43115234 1.18530273 C-10.20200391 -0.92927148 -4.65215428 -0.00055555 0 0 Z " fill="#FFFEFE" transform="translate(21.43115234375,7.814697265625)"/>
<path d="M0 0 C2.7427508 -0.47114738 5.19558897 -0.17805784 8 0 C9 1 9 1 9.0625 4.5625 C9.041875 5.696875 9.02125 6.83125 9 8 C10.98 8.66 12.96 9.32 15 10 C15.125 15.75 15.125 15.75 14 18 C11.69 18 9.38 18 7 18 C6.34 24.27 5.68 30.54 5 37 C6.65 37 8.3 37 10 37 C11 38 11 38 11.25 41.4375 C11.12625 43.2009375 11.12625 43.2009375 11 45 C7.42102749 47.38598167 5.28409945 47.78579503 1 48 C-5.26352183 46.04906697 -5.26352183 46.04906697 -7.21484375 43.26953125 C-9.81356977 35.75779086 -6.75742862 25.5586493 -5 18 C-6.32 17.67 -7.64 17.34 -9 17 C-8.67 14.69 -8.34 12.38 -8 10 C-6.35 9.67 -4.7 9.34 -3 9 C-2.87625 8.071875 -2.7525 7.14375 -2.625 6.1875 C-2 3 -2 3 0 0 Z " fill="#FEFEFE" transform="translate(229,13)"/>
<path d="M0 0 C1.051875 -0.02126953 1.051875 -0.02126953 2.125 -0.04296875 C4 0.1875 4 0.1875 6 2.1875 C5.99926758 4.1484375 5.99926758 4.1484375 5.64453125 6.5625 C5.51796143 7.45759277 5.3913916 8.35268555 5.26098633 9.27490234 C5.11298584 10.23605957 4.96498535 11.1972168 4.8125 12.1875 C4.67030029 13.16541504 4.52810059 14.14333008 4.3815918 15.15087891 C3.05027923 24.1838969 1.56581038 33.19241909 0 42.1875 C1.32 42.5175 2.64 42.8475 4 43.1875 C4.125 46.5625 4.125 46.5625 4 50.1875 C1.32333129 52.86416871 -0.23949675 52.97464133 -4 53.1875 C-6.59409961 52.45691684 -8.58555505 51.46573556 -11 50.1875 C-14.97651788 42.23446424 -10.98889934 29.4461147 -9.54638672 21.03173828 C-9.12029528 18.5349313 -8.71369044 16.03544614 -8.30859375 13.53515625 C-8.0428125 11.9477244 -7.77592694 10.36047695 -7.5078125 8.7734375 C-7.32643234 7.65175674 -7.32643234 7.65175674 -7.14138794 6.50741577 C-6.82857343 4.72093587 -6.42292787 2.95115965 -6 1.1875 C-3.77109005 0.07304502 -2.46944894 0.02269714 0 0 Z " fill="#FFFFFF" transform="translate(50,7.8125)"/>
<path d="M0 0 C1.11918256 3.35754767 0.96008175 5.65809695 0.06640625 9.0703125 C-1.6981929 12.26339667 -4.47268039 12.98665483 -7.80859375 14.11328125 C-10.24714637 15.10000397 -11.31790609 15.99672115 -13 18 C-13.6421063 19.86254277 -13.6421063 19.86254277 -13.87890625 21.90625 C-13.99556641 22.65003906 -14.11222656 23.39382812 -14.23242188 24.16015625 C-14.34134766 24.93230469 -14.45027344 25.70445313 -14.5625 26.5 C-15.74919829 34.62379743 -15.74919829 34.62379743 -18 38 C-19.875 38.328125 -19.875 38.328125 -22 38.25 C-22.70125 38.23453125 -23.4025 38.2190625 -24.125 38.203125 C-26 38 -26 38 -28 37 C-28.25907777 29.91854098 -27.27057496 23.22907012 -26.125 16.25 C-25.95097656 15.12722656 -25.77695313 14.00445312 -25.59765625 12.84765625 C-25.42363281 11.76871094 -25.24960938 10.68976562 -25.0703125 9.578125 C-24.91320801 8.60262695 -24.75610352 7.62712891 -24.59423828 6.62207031 C-24.02954131 4.13035071 -23.25145063 2.21475983 -22 0 C-19.69 0 -17.38 0 -15 0 C-14.34 1.32 -13.68 2.64 -13 4 C-12.46375 3.731875 -11.9275 3.46375 -11.375 3.1875 C-10.59125 2.795625 -9.8075 2.40375 -9 2 C-7.4840625 1.1646875 -7.4840625 1.1646875 -5.9375 0.3125 C-3 -1 -3 -1 0 0 Z " fill="#FEFEFE" transform="translate(219,22)"/>
<path d="M0 0 C5.61 0 11.22 0 17 0 C16.67 1.32 16.34 2.64 16 4 C12.04 4 8.08 4 4 4 C3.67 6.31 3.34 8.62 3 11 C6.3 11 9.6 11 13 11 C13 12.32 13 13.64 13 15 C9.37 15 5.74 15 2 15 C1.67 17.64 1.34 20.28 1 23 C1.84304687 23 2.68609375 23 3.5546875 23 C7.36979167 23 11.18489583 23 15 23 C17.88979599 20.25491726 17.88979599 20.25491726 20 17 C19.5 13.83333333 19.5 13.83333333 18 11 C17.65023242 9.67088318 17.30903983 8.33917261 17 7 C18.65 7 20.3 7 22 7 C22.33 8.65 22.66 10.3 23 12 C23.721875 11.175 24.44375 10.35 25.1875 9.5 C28 7 28 7 30.8125 6.6875 C31.534375 6.790625 32.25625 6.89375 33 7 C31.83584751 9.61934309 30.75122279 11.26259816 28.75 13.375 C27.88375 14.674375 27.88375 14.674375 27 16 C27.60380471 19.06201446 27.60380471 19.06201446 29 22 C29.36106097 23.66088045 29.70462173 25.32618981 30 27 C28.35 26.67 26.7 26.34 25 26 C24.505 23.525 24.505 23.525 24 21 C23.195625 21.804375 22.39125 22.60875 21.5625 23.4375 C18 27 18 27 15.86694336 27.11352539 C14.95050049 27.10828857 14.03405762 27.10305176 13.08984375 27.09765625 C12.10048828 27.09443359 11.11113281 27.09121094 10.09179688 27.08789062 C9.05087891 27.07951172 8.00996094 27.07113281 6.9375 27.0625 C5.89271484 27.05798828 4.84792969 27.05347656 3.77148438 27.04882812 C1.1809334 27.03699913 -1.40950559 27.02051689 -4 27 C-4.26570232 20.94696895 -3.25909363 15.47088194 -2 9.5625 C-1.80921875 8.64017578 -1.6184375 7.71785156 -1.421875 6.76757812 C-0.95407312 4.51043404 -0.47788722 2.25503034 0 0 Z " fill="#FEFEFE" transform="translate(18,76)"/>
<path d="M0 0 C1.37478516 0.01740234 1.37478516 0.01740234 2.77734375 0.03515625 C3.69644531 0.04417969 4.61554688 0.05320312 5.5625 0.0625 C6.27277344 0.07410156 6.98304687 0.08570312 7.71484375 0.09765625 C8.89441132 4.43237347 8.49629604 7.88562214 7.7890625 12.296875 C7.68141068 12.97313431 7.57375885 13.64939362 7.46284485 14.34614563 C7.23417424 15.76800262 7.00111605 17.18916017 6.76391602 18.60961914 C6.40208504 20.78671289 6.05855365 22.96615957 5.71679688 25.14648438 C5.49197241 26.53012498 5.2660974 27.91359538 5.0390625 29.296875 C4.83369873 30.55330811 4.62833496 31.80974121 4.41674805 33.10424805 C3.71484375 36.09765625 3.71484375 36.09765625 1.71484375 38.09765625 C-0.16015625 38.36328125 -0.16015625 38.36328125 -2.28515625 38.34765625 C-2.98640625 38.3528125 -3.68765625 38.35796875 -4.41015625 38.36328125 C-6.28515625 38.09765625 -6.28515625 38.09765625 -8.28515625 36.09765625 C-8.45538341 28.26188716 -6.59226539 20.17323402 -5.28515625 12.47265625 C-5.10726562 11.38597656 -4.929375 10.29929687 -4.74609375 9.1796875 C-4.57335938 8.14972656 -4.400625 7.11976562 -4.22265625 6.05859375 C-3.98869141 4.66326416 -3.98869141 4.66326416 -3.75 3.23974609 C-3.11632268 0.31963853 -3.01778531 0.12896518 0 0 Z " fill="#FEFEFE" transform="translate(65.28515625,21.90234375)"/>
<path d="M0 0 C3.8349493 0.04116225 3.8349493 0.04116225 6.0625 2.125 C7.125 4.3125 7.125 4.3125 8.125 7.3125 C9.75448064 8.53695284 9.75448064 8.53695284 11.6875 9.5 C13.3890625 10.3971875 13.3890625 10.3971875 15.125 11.3125 C15.125 13.9525 15.125 16.5925 15.125 19.3125 C14.0525 19.828125 12.98 20.34375 11.875 20.875 C7.65503795 23.24605373 6.19354018 26.00993642 4.125 30.3125 C-1.19486174 30.74855424 -1.19486174 30.74855424 -3.875 30.3125 C-5.6875 28 -5.6875 28 -6.875 25.3125 C-8.72164851 23.13009721 -9.87732624 22.31152623 -12.5625 21.1875 C-14.875 19.3125 -14.875 19.3125 -15.1953125 17.12109375 C-15.18814846 14.83218443 -15.0899293 12.59075054 -14.875 10.3125 C-9.125 7.3125 -9.125 7.3125 -6.875 7.3125 C-6.565625 6.343125 -6.25625 5.37375 -5.9375 4.375 C-4.54685913 0.36668219 -4.54685913 0.36668219 0 0 Z M-0.875 5.3125 C-1.060625 6.42625 -1.24625 7.54 -1.4375 8.6875 C-1.911875 9.88375 -2.38625 11.08 -2.875 12.3125 C-6.5 13.75 -6.5 13.75 -9.875 14.3125 C-9.875 14.9725 -9.875 15.6325 -9.875 16.3125 C-8.4828125 16.5909375 -8.4828125 16.5909375 -7.0625 16.875 C-3.63712803 18.41977559 -3.3544021 18.69871238 -2 21.9375 C-1.62875 23.05125 -1.2575 24.165 -0.875 25.3125 C-0.215 25.3125 0.445 25.3125 1.125 25.3125 C1.310625 24.384375 1.49625 23.45625 1.6875 22.5 C3.23227559 19.07462803 3.51121238 18.7919021 6.75 17.4375 C7.86375 17.06625 8.9775 16.695 10.125 16.3125 C10.125 15.6525 10.125 14.9925 10.125 14.3125 C9.01125 14.126875 7.8975 13.94125 6.75 13.75 C4.955625 13.0384375 4.955625 13.0384375 3.125 12.3125 C1.6875 8.6875 1.6875 8.6875 1.125 5.3125 C0.465 5.3125 -0.195 5.3125 -0.875 5.3125 Z " fill="#FCEA08" transform="translate(228.875,72.6875)"/>
<path d="M0 0 C2.75105422 -0.10812003 5.49785087 -0.18734945 8.25 -0.25 C9.02730469 -0.28351563 9.80460938 -0.31703125 10.60546875 -0.3515625 C14.36762853 -0.41587292 16.37144434 -0.42803483 19.546875 1.734375 C21.68086279 5.06156027 21.2227994 7.10348416 20.62109375 10.875 C19.76922106 13.7895833 18.43341946 15.23024039 16 17 C13.47524538 18.26237731 11.68799534 18.09856404 8.875 18.0625 C7.96492187 18.05347656 7.05484375 18.04445313 6.1171875 18.03515625 C5.06917969 18.01775391 5.06917969 18.01775391 4 18 C3.67 20.97 3.34 23.94 3 27 C0.69 27 -1.62 27 -4 27 C-2.67279412 5.34558824 -2.67279412 5.34558824 0 0 Z M6 6 C5.67 7.98 5.34 9.96 5 12 C7.33294775 12.04241723 9.66702567 12.04092937 12 12 C13.29633621 10.93354885 13.29633621 10.93354885 13.0625 8.4375 C13.041875 7.633125 13.02125 6.82875 13 6 C10.69 6 8.38 6 6 6 Z " fill="#FCE60A" transform="translate(138,76)"/>
<path d="M0 0 C2.31 0 4.62 0 7 0 C6.85795259 1.58367747 6.71119847 3.16693318 6.5625 4.75 C6.48128906 5.63171875 6.40007812 6.5134375 6.31640625 7.421875 C6.03761535 9.69350452 5.61209423 11.79851823 5 14 C7.59244796 13.27098567 7.59244796 13.27098567 10 11 C11.06257913 7.37975551 11.57413962 3.74375763 12 0 C14.31 0 16.62 0 19 0 C17.63106796 19.36893204 17.63106796 19.36893204 16 21 C14.33382885 21.04063832 12.66611905 21.042721 11 21 C10.67 20.34 10.34 19.68 10 19 C9.01 19.66 8.02 20.32 7 21 C2.92509248 21.33957563 1.46998729 21.31332486 -2 19 C-3.11556559 12.65447099 -1.6576771 6.12748498 0 0 Z " fill="#FCE608" transform="translate(172,82)"/>
<path d="M0 0 C1.08667969 0.01804687 2.17335937 0.03609375 3.29296875 0.0546875 C4.54013672 0.08949219 4.54013672 0.08949219 5.8125 0.125 C6.8125 3.125 6.8125 3.125 5.8125 6.125 C3.5025 6.455 1.1925 6.785 -1.1875 7.125 C-0.218125 7.516875 0.75125 7.90875 1.75 8.3125 C4.8125 10.125 4.8125 10.125 5.8125 12.5625 C5.8125 15.46033403 5.50834071 16.78312474 3.8125 19.125 C0.70534598 21.06783244 -1.67975127 21.37214214 -5.3125 21.3125 C-6.18132812 21.30605469 -7.05015625 21.29960938 -7.9453125 21.29296875 C-10.1875 21.125 -10.1875 21.125 -12.1875 20.125 C-12.1875 18.475 -12.1875 16.825 -12.1875 15.125 C-8.49331799 13.893606 -5.9818739 14.48067236 -2.1875 15.125 C-2.1875 14.465 -2.1875 13.805 -2.1875 13.125 C-3.115625 13.0425 -4.04375 12.96 -5 12.875 C-8.1875 12.125 -8.1875 12.125 -10.1875 10.4375 C-11.1875 8.125 -11.1875 8.125 -10.5625 5 C-8.10365595 -0.14121939 -5.2433055 -0.11275926 0 0 Z " fill="#FCE608" transform="translate(203.1875,81.875)"/>
<path d="M0 0 C2.72309989 2.36001991 2.97509087 3.7758178 3.375 7.375 C2.87632196 12.19555435 1.49590965 15.34381432 -1.75 18.9375 C-5.0342045 20.48837435 -7.52950563 19.73414304 -11 19 C-11.33 21.31 -11.66 23.62 -12 26 C-13.65 26.33 -15.3 26.66 -17 27 C-16.27643663 17.88310149 -14.65707093 8.98361723 -13 0 C-4.47729446 -1.322837 -4.47729446 -1.322837 0 0 Z M-9 5 C-9.58189266 7.42521494 -9.58189266 7.42521494 -9.6875 10.125 C-9.75324219 11.03507812 -9.81898437 11.94515625 -9.88671875 12.8828125 C-9.92410156 13.58148438 -9.96148437 14.28015625 -10 15 C-7.525 15.495 -7.525 15.495 -5 16 C-3.09598862 14.09598862 -2.06479561 12.66574314 -1.80078125 9.953125 C-1.8113422 7.96766727 -1.90084957 5.9830086 -2 4 C-5.48581856 2.7979936 -5.67992344 2.78661563 -9 5 Z " fill="#FFFFFF" transform="translate(66,83)"/>
<path d="M0 0 C1.875 1.625 1.875 1.625 3 4 C3.1875 7.75 3.1875 7.75 3 11 C-1.29 11 -5.58 11 -10 11 C-9.34 12.32 -8.68 13.64 -8 15 C-5.36 14.67 -2.72 14.34 0 14 C0 15.32 0 16.64 0 18 C-3.51824511 20.34549674 -4.85775694 20.57991403 -9 20 C-11.99665484 17.98051521 -13.66416551 16.47333839 -14.484375 12.875 C-14.73914114 8.68551236 -14.32834749 5.8311602 -11.6875 2.5 C-7.68276507 -1.22533482 -5.16791957 -1.39964488 0 0 Z M-6 3 C-7.485 4.98 -7.485 4.98 -9 7 C-6.36 7 -3.72 7 -1 7 C-1.33 6.01 -1.66 5.02 -2 4 C-4.01508358 3.26676204 -4.01508358 3.26676204 -6 3 Z " fill="#FEFEFE" transform="translate(125,83)"/>
<path d="M0 0 C2.64 0 5.28 0 8 0 C7.52639789 3.29249253 7.04517553 6.58382638 6.5625 9.875 C6.42779297 10.81214844 6.29308594 11.74929687 6.15429688 12.71484375 C6.02216797 13.61074219 5.89003906 14.50664063 5.75390625 15.4296875 C5.63345947 16.25710449 5.5130127 17.08452148 5.38891602 17.93701172 C5 20 5 20 4 22 C5.32 22 6.64 22 8 22 C7.125 26.875 7.125 26.875 6 28 C1.96839809 28.26293056 0.44107266 28.29404844 -3 26 C-2.50610812 17.21392344 -1.63177319 8.64998215 0 0 Z " fill="#FCE709" transform="translate(161,75)"/>
<path d="M0 0 C2.36125898 1.82807147 2.8881527 3.15720698 3.27734375 6.08984375 C3.47480522 10.83681755 3.18554405 14.2456088 0 18 C-3.20032236 20.31747481 -6.12478608 20.48440174 -10 20 C-12.30275556 18.1329009 -13.67823871 16.64352259 -15 14 C-15.1346515 9.1044562 -14.69296109 5.85287519 -11.5625 2 C-7.30496065 -1.32295754 -5.30361424 -1.20959623 0 0 Z M-8.25 4.5 C-10.58810818 7.84015454 -10.44366037 10.00705668 -10 14 C-9.34 14.66 -8.68 15.32 -8 16 C-5.45286596 15.99077298 -5.45286596 15.99077298 -3 15 C-1.45089819 13.40563594 -1.45089819 13.40563594 -1 11 C-1.31126713 7.31796085 -1.31126713 7.31796085 -2 4 C-4.85223038 2.77761555 -5.60622399 2.73748266 -8.25 4.5 Z " fill="#FEFEFE" transform="translate(94,83)"/>
<path d="M0 0 C0.66 0.66 1.32 1.32 2 2 C1.875 5.5 1.875 5.5 1 9 C-1.90728903 11.00279911 -4.27744167 11.22713407 -7.75 11.125 C-8.54921875 11.10695313 -9.3484375 11.08890625 -10.171875 11.0703125 C-10.77515625 11.04710937 -11.3784375 11.02390625 -12 11 C-11.16012415 12.99784404 -11.16012415 12.99784404 -10 15 C-6.39887139 16.2652614 -3.65254051 15.9392247 0 15 C0 16.32 0 17.64 0 19 C-4.17673547 20.39224516 -8.06202503 20.57615472 -12.3125 19.3125 C-14.81064237 17.36950038 -15.3364037 16.11890263 -16 13 C-15.61969794 8.56314263 -14.81044911 5.04574078 -12.0625 1.5 C-7.91782128 -1.5143118 -4.84991884 -0.96998377 0 0 Z M-7.625 3.25 C-10.26881745 4.84619064 -10.26881745 4.84619064 -11 8 C-7.58343976 8.16677282 -7.58343976 8.16677282 -4 8 C-3.34 7.34 -2.68 6.68 -2 6 C-2 5.01 -2 4.02 -2 3 C-4.98385511 1.62017031 -4.98385511 1.62017031 -7.625 3.25 Z " fill="#FEFEFE" transform="translate(314,9)"/>
<path d="M0 0 C0.33 0 0.66 0 1 0 C1 1.65 1 3.3 1 5 C2.32 4.67 3.64 4.34 5 4 C5 4.66 5 5.32 5 6 C6.11375 6.185625 7.2275 6.37125 8.375 6.5625 C10.169375 7.2740625 10.169375 7.2740625 12 8 C13.4375 11.625 13.4375 11.625 14 15 C14.66 15 15.32 15 16 15 C16.66 12.69 17.32 10.38 18 8 C18.33 8.99 18.66 9.98 19 11 C20.32 11.33 21.64 11.66 23 12 C21.68 14.64 20.36 17.28 19 20 C13.68013826 20.43605424 13.68013826 20.43605424 11 20 C9.1875 17.6875 9.1875 17.6875 8 15 C6.15335149 12.81759721 4.99767376 11.99902623 2.3125 10.875 C0 9 0 9 -0.3203125 6.80859375 C-0.31314846 4.51968443 -0.2149293 2.27825054 0 0 Z " fill="#FCEC0E" transform="translate(214,83)"/>
<path d="M0 0 C1.32 0 2.64 0 4 0 C3.67 1.65 3.34 3.3 3 5 C4.98 5 6.96 5 9 5 C9 5.99 9 6.98 9 8 C6.69 8 4.38 8 2 8 C1.67 12.29 1.34 16.58 1 21 C2.98 21 4.96 21 7 21 C7 21.99 7 22.98 7 24 C0.375 25.25 0.375 25.25 -3 23 C-2.85930804 20.87465341 -2.71229079 18.74972471 -2.5625 16.625 C-2.48128906 15.44164062 -2.40007812 14.25828125 -2.31640625 13.0390625 C-2 10 -2 10 -1 8 C-1.99 8 -2.98 8 -4 8 C-4 7.01 -4 6.02 -4 5 C-3.01 4.67 -2.02 4.34 -1 4 C-0.26676204 1.98491642 -0.26676204 1.98491642 0 0 Z " fill="#FEFEFE" transform="translate(288,4)"/>
<path d="M0 0 C1.32 0 2.64 0 4 0 C3.6893306 2.70855454 3.37652255 5.41683388 3.0625 8.125 C2.97548828 8.88554687 2.88847656 9.64609375 2.79882812 10.4296875 C2.3084513 14.64329577 1.74097022 18.821195 1 23 C4.96 23 8.92 23 13 23 C13 23.99 13 24.98 13 26 C7.39 26 1.78 26 -4 26 C-2.68 17.42 -1.36 8.84 0 0 Z " fill="#FFFFFF" transform="translate(259,2)"/>
<path d="M0 0 C2 2 2 2 2.375 5.4375 C2 9 2 9 0.375 10.9375 C-2.63422792 12.28373354 -4.73393703 12.34745351 -8 12 C-8.99 11.34 -9.98 10.68 -11 10 C-11.54337501 6.42924991 -11.43720456 4.66455094 -9.4375 1.625 C-6.13230302 -0.57846465 -3.89201406 -0.43244601 0 0 Z " fill="#FFFFFF" transform="translate(74,8)"/>
<path d="M0 0 C1.32 0 2.64 0 4 0 C3.43708547 9.16191918 1.79203512 18.01728306 0 27 C-1.65 27.33 -3.3 27.66 -5 28 C-4.35450543 21.7933214 -3.52908197 15.65411398 -2.5 9.5 C-2.30470703 8.28570312 -2.30470703 8.28570312 -2.10546875 7.046875 C-1.12116449 1.12116449 -1.12116449 1.12116449 0 0 Z " fill="#FEFEFE" transform="translate(75,75)"/>
<path d="M0 0 C-0.1875 1.875 -0.1875 1.875 -1 4 C-1.804375 4.226875 -2.60875 4.45375 -3.4375 4.6875 C-6.35317277 5.80963778 -6.35317277 5.80963778 -7.14453125 9.2578125 C-7.36496094 10.53398438 -7.58539063 11.81015625 -7.8125 13.125 C-8.04582031 14.40632813 -8.27914062 15.68765625 -8.51953125 17.0078125 C-8.67808594 17.99523437 -8.83664063 18.98265625 -9 20 C-10.65 20 -12.3 20 -14 20 C-13.01 13.73 -12.02 7.46 -11 1 C-3.125 -1.25 -3.125 -1.25 0 0 Z " fill="#FEFEFE" transform="translate(112,83)"/>
<path d="M0 0 C1.32 0 2.64 0 4 0 C3.69127671 2.60466543 3.37818277 5.20867691 3.0625 7.8125 C2.97548828 8.55048828 2.88847656 9.28847656 2.79882812 10.04882812 C2.41783454 13.16733121 1.99630626 16.01108122 1 19 C-0.32 18.67 -1.64 18.34 -3 18 C-2.01 12.06 -1.02 6.12 0 0 Z " fill="#FFFFFF" transform="translate(278,9)"/>
<path d="M0 0 C0.66 0 1.32 0 2 0 C2.3125 2.8125 2.3125 2.8125 2 6 C-0.125 7.9375 -0.125 7.9375 -3 9 C-6.3125 8.6875 -6.3125 8.6875 -9 8 C-8.8125 6.125 -8.8125 6.125 -8 4 C-5.10888212 2.47835901 -3.28176588 2 0 2 C0 1.34 0 0.68 0 0 Z " fill="#FAE90E" transform="translate(242,86)"/>
<path d="M0 0 C0.80824219 0.11085938 1.61648437 0.22171875 2.44921875 0.3359375 C3.37154297 0.47902344 3.37154297 0.47902344 4.3125 0.625 C3.9825 1.615 3.6525 2.605 3.3125 3.625 C1.31640625 4.57421875 1.31640625 4.57421875 -1.125 5.3125 C-2.32962891 5.68955078 -2.32962891 5.68955078 -3.55859375 6.07421875 C-5.6875 6.625 -5.6875 6.625 -7.6875 6.625 C-7.875 4.25 -7.875 4.25 -7.6875 1.625 C-4.33422361 -0.61051759 -3.78006343 -0.54783528 0 0 Z " fill="#FBEA0C" transform="translate(222.6875,81.375)"/>
<path d="M0 0 C0.33 0.99 0.66 1.98 1 3 C2.32 3.33 3.64 3.66 5 4 C3.68 6.64 2.36 9.28 1 12 C0.01 12 -0.98 12 -2 12 C-2 11.34 -2 10.68 -2 10 C-2.66 10 -3.32 10 -4 10 C-4 9.01 -4 8.02 -4 7 C-3.34 7 -2.68 7 -2 7 C-1.34 4.69 -0.68 2.38 0 0 Z " fill="#F3B62B" transform="translate(232,91)"/>
<path d="M0 0 C0.33 0 0.66 0 1 0 C1 1.65 1 3.3 1 5 C2.32 4.67 3.64 4.34 5 4 C5 4.66 5 5.32 5 6 C7.97 6.495 7.97 6.495 11 7 C10.01 7.495 10.01 7.495 9 8 C8.67 8.99 8.34 9.98 8 11 C1.125 10.125 1.125 10.125 0 9 C-0.07179964 7.48071962 -0.08392007 5.95832518 -0.0625 4.4375 C-0.05347656 3.61121094 -0.04445312 2.78492187 -0.03515625 1.93359375 C-0.02355469 1.29550781 -0.01195312 0.65742187 0 0 Z " fill="#F4BE33" transform="translate(214,83)"/>
<path d="M0 0 C0.99 0 1.98 0 3 0 C3.66 1.65 4.32 3.3 5 5 C4.34 5 3.68 5 3 5 C2.67 6.32 2.34 7.64 2 9 C-0.31 8.67 -2.62 8.34 -5 8 C-4.34 7.67 -3.68 7.34 -3 7 C-2.29618843 5.01276732 -1.6288189 3.01222047 -1 1 C-0.67 0.67 -0.34 0.34 0 0 Z " fill="#EFB133" transform="translate(225,73)"/>
<path d="M0 0 C2.9375 0.8125 2.9375 0.8125 6 2 C6.33 2.99 6.66 3.98 7 5 C6.34 5 5.68 5 5 5 C5 5.66 5 6.32 5 7 C1.62537285 6.45276317 -0.08235 5.9451 -3 4 C-2.01 4 -1.02 4 0 4 C0 2.68 0 1.36 0 0 Z " fill="#F3B82B" transform="translate(237,81)"/>
<path d="M0 0 C0.33 0.99 0.66 1.98 1 3 C3.01508358 3.73323796 3.01508358 3.73323796 5 4 C4.67 4.99 4.34 5.98 4 7 C3.34 7 2.68 7 2 7 C2 6.34 2 5.68 2 5 C1.01 5 0.02 5 -1 5 C-0.67 3.35 -0.34 1.7 0 0 Z " fill="#FCD224" transform="translate(232,91)"/>
<path d="M0 0 C2.1519437 3.22791555 2.20086443 4.28400809 2 8 C0.35 8 -1.3 8 -3 8 C-3 7.34 -3 6.68 -3 6 C-2.34 5.67 -1.68 5.34 -1 5 C-0.34444881 2.47266765 -0.34444881 2.47266765 0 0 Z " fill="#FCD817" transform="translate(235,77)"/>
<path d="M0 0 C0.99 0.33 1.98 0.66 3 1 C3.6875 3.0625 3.6875 3.0625 4 5 C1.69 4.67 -0.62 4.34 -3 4 C-2.34 3.67 -1.68 3.34 -1 3 C-0.67 2.01 -0.34 1.02 0 0 Z " fill="#F9C825" transform="translate(223,77)"/>
<path d="M0 0 C0.99 0 1.98 0 3 0 C2.625 1.9375 2.625 1.9375 2 4 C1.01 4.495 1.01 4.495 0 5 C-2.125 4.0625 -2.125 4.0625 -4 3 C-3.01 2.67 -2.02 2.34 -1 2 C-0.67 1.34 -0.34 0.68 0 0 Z " fill="#FDDC0C" transform="translate(223,91)"/>
<path d="M0 0 C1.65 0 3.3 0 5 0 C4.01 0.495 4.01 0.495 3 1 C2.67 1.99 2.34 2.98 2 4 C0.68 4 -0.64 4 -2 4 C-2 3.34 -2 2.68 -2 2 C-1.34 2 -0.68 2 0 2 C0 1.34 0 0.68 0 0 Z " fill="#F7C322" transform="translate(220,90)"/>
<path d="M0 0 C1.32 0 2.64 0 4 0 C4 1.32 4 2.64 4 4 C2.68 4 1.36 4 0 4 C0 2.68 0 1.36 0 0 Z " fill="#FFFFFF" transform="translate(279,2)"/>
</svg>
